<svg xmlns="http://www.w3.org/2000/svg" xmlns:xlink="http://www.w3.org/1999/xlink" xmlns:lucid="lucid" width="1760" height="1360"><g transform="translate(0 0)" lucid:page-tab-id="0_0"><path d="M249.8 495.16h1141.76v748.13H249.8z" stroke="#248814" stroke-width="2" fill="#f6f6f7"/><path d="M249.8 495.16h56v56h-56v-56z" stroke="#fff" stroke-opacity="0" fill="#248814"/><path d="M281.56 523.47h-1.18v-1.1c-.12-1.74-1.48-3.08-3.2-3.2-1.9-.13-3.54 1.3-3.67 3.2v1.06h-1.17c-.44 0-.8.36-.8.8v6.13c0 .44.36.8.8.8h9.23c.44 0 .8-.36.8-.8v-6.1c0-.43-.36-.8-.8-.8zm-6.4-1.07c.1-1.02 1-1.77 2-1.67.9.08 1.58.77 1.67 1.67v1.07h-3.72zm5.65 7.08h-7.67v-4.42h7.63z" stroke="#fff" stroke-opacity="0" fill="#fff"/><path d="M292.07 520.9c-.08-2.44-1.58-4.47-3.87-5.3-1.58-.46-3.16-.13-4.4.9-.68-1.44-1.47-2.6-2.6-3.75-3.24-3.35-7.94-4.28-12.18-2.4-4.04 1.9-6.4 5.64-6.54 10.06v.73c-3.4.96-5.66 4.06-5.5 7.63v.63c.4 4.27 3.92 7.5 8.2 7.46h26s7.42-.63 7.42-8.1c.04-3.9-2.66-7.2-6.53-7.85zm-.96 14.4h-25.9c-3.47.05-6.3-2.53-6.6-5.96v-.53c-.15-3.03 1.93-5.7 4.92-6.3.38-.1.63-.47.6-.88-.06-.4-.06-.74 0-1.15.07-3.8 2.1-6.95 5.52-8.6 1.25-.57 2.4-.82 3.83-.85 2.62.08 4.87 1.05 6.7 2.94 1.25 1.3 2.04 2.6 2.62 4.3.03.15.1.3.24.37.37.27.87.2 1.12-.17.83-1.18 2.25-1.67 3.62-1.3 1.8.73 2.87 2.4 2.83 4.32-.07.4.22.83.64.9 3.57.37 6.2 3.55 5.82 7.12-.3 3.13-2.7 5.52-5.82 5.85z" stroke="#fff" stroke-opacity="0" fill="#fff"/><use xlink:href="#a" transform="matrix(1,0,0,1,320.8001368986809,515.1616871208398) translate(0 12.444444444444446)"/><use xlink:href="#b" transform="matrix(1,0,0,1,320.8001368986809,515.1616871208398) translate(0 31.111111111111118)"/><path d="M424.67 620h345.4v212.46h-345.4z" fill="#248814" fill-opacity=".13"/><path d="M424.67 620h56v56h-56v-56z" stroke="#fff" stroke-opacity="0" fill="#248814"/><path d="M468.05 642.18c-.16-.17-.34-.25-.56-.25h-5.16v-5.58c-.03-2.54-.97-4.7-2.84-6.4-1.9-1.84-4.15-2.75-6.77-2.75-2.65 0-4.9.83-6.8 2.62-1.9 1.7-2.87 3.87-2.9 6.4v5.66h-5.15c-.25 0-.44.1-.6.25-.15.17-.2.34-.2.6V668c0 .43.33.8.8.8h29.58c.46 0 .8-.37.8-.8v-25.28c0-.2-.06-.38-.2-.54zm-23.46-5.9c.02-2.13.8-3.88 2.36-5.3 1.62-1.5 3.52-2.2 5.74-2.2 2.2 0 4.12.75 5.7 2.25 1.54 1.4 2.32 3.2 2.32 5.32v5.58h-16.17zm22.08 30.94h-28.02v-23.7h28.02z" stroke="#fff" stroke-opacity="0" fill="#fff"/><path d="M451.86 657.3v6.25h1.6v-6.23c2.13-.4 3.63-2.2 3.64-4.35 0-2.43-1.98-4.4-4.42-4.43-2.2-.03-4.05 1.5-4.42 3.68-.4 2.4 1.2 4.68 3.6 5.1zm.82-7.15c.8 0 1.44.27 2 .82.55.56.82 1.22.82 2 0 1.55-1.2 2.8-2.76 2.82h-.06c-1.56.1-2.92-1.06-3.03-2.62-.12-1.56 1.05-2.93 2.6-3.03.16-.02.28-.02.43 0z" stroke="#fff" stroke-opacity="0" fill="#fff"/><path d="M848.88 522h64.85v64.86h-64.85V522z" stroke="#fff" stroke-opacity="0" stroke-width="2" fill="#d86613"/><path d="M891.72 555.3c.38 2.32 2.1 4.05 4.44 4.44 2.95.48 5.7-1.5 6.16-4.45.5-2.95-1.48-5.72-4.43-6.2-2.93-.47-5.7 1.52-6.18 4.46h-6.46c-.08-1.7-.46-3.07-1.18-4.58l7.77-6.58c.97.78 2.07 1.17 3.33 1.17 2.96 0 5.37-2.42 5.37-5.4 0-2.94-2.4-5.37-5.37-5.37-3 0-5.4 2.43-5.4 5.4 0 1.1.3 2 .9 2.95l-7.53 6.3c-.97-1.4-2.03-2.5-3.46-3.45-5.8-3.84-13.57-2.3-17.4 3.46-3.86 5.75-2.3 13.54 3.45 17.38 5.74 3.85 13.56 2.3 17.4-3.45l7.52 6.34c-.6.9-.9 1.82-.9 2.94 0 1.26.4 2.34 1.2 3.33 1.8 2.35 5.2 2.73 7.5.88 2.37-1.82 2.75-5.2.9-7.53-1.82-2.33-5.2-2.72-7.52-.9l-7.77-6.58c.72-1.5 1.1-2.9 1.18-4.58zm5.28-4.5c2.03 0 3.67 1.6 3.67 3.62 0 2.04-1.64 3.64-3.63 3.68-2.02 0-3.67-1.64-3.67-3.68 0-2 1.65-3.63 3.63-3.63zm-1.77-16.27c1.98 0 3.63 1.65 3.63 3.68 0 2-1.65 3.64-3.63 3.64-2.03 0-3.68-1.64-3.68-3.63 0-2.02 1.65-3.67 3.68-3.67zm0 32.52c1.98 0 3.63 1.6 3.63 3.63s-1.65 3.63-3.63 3.63c-2.03 0-3.68-1.6-3.68-3.62 0-2.03 1.65-3.63 3.68-3.63zm-22.47-1.82c-5.96 0-10.8-4.84-10.8-10.8 0-5.97 4.84-10.82 10.8-10.82 5.95 0 10.8 4.86 10.8 10.82 0 5.97-4.85 10.8-10.8 10.8z" stroke="#fff" stroke-opacity="0" stroke-width="2" fill="#fff"/><use xlink:href="#c" transform="matrix(1,0,0,1,818.8830262882544,595.8588877158484) translate(47.80864197530864 13.61111111111111)"/><path d="M848.38 554.43H615.56c-6.63 0-12 5.37-12 12v137.65" stroke="#333" fill="none"/><path d="M848.88 554.93h-.5v-1h.5zM604.06 704.8v-.02l-1-.4v-.3h1z" fill="#333"/><path d="M717 224.1h-16.8c-.77 0-1.38-.62-1.38-1.37v-2.06c0-7.7 5.05-14.14 12.55-15.95.35-.08.67-.04 1 .14 2.2 1.18 4.6 1.18 6.8 0 .3-.18.63-.22.98-.14 1.97.5 3.6 1.2 5.27 2.3l-1.55 2.3c-1.25-.8-2.42-1.36-3.88-1.74-2.8 1.28-5.68 1.28-8.47 0-5.98 1.67-9.95 6.9-9.95 13.1v.67H717z" stroke="#fff" stroke-opacity="0" fill="#333"/><path d="M715.74 208.44c-5 0-9.05-4.05-9.05-9.04 0-4.98 4.04-9.03 9.04-9.03 5-.06 9.07 3.96 9.13 8.93.03 3.45-1.7 6.4-4.75 8.02-1.4.78-2.76 1.12-4.38 1.12zm0-15.33c-3.5 0-6.35 2.82-6.36 6.3 0 2.37 1.2 4.4 3.3 5.52 1.97 1.06 4.15 1.06 6.13 0 2.12-1.14 3.34-3.2 3.3-5.6-.03-3.46-2.9-6.22-6.36-6.2zM762.3 224.1h-16.8v-2.75h15.42v-.68c0-6.2-3.97-11.43-9.94-13.1-2.8 1.3-5.68 1.3-8.48 0-1.46.4-2.66.97-3.92 1.84l-1.57-2.26c1.7-1.17 3.32-1.9 5.3-2.4.34-.1.68-.05 1 .13 2.2 1.18 4.6 1.18 6.83 0 .32-.18.64-.22.98-.14 7.5 1.8 12.57 8.25 12.57 15.94v2.06c0 .75-.62 1.36-1.36 1.37z" stroke="#fff" stroke-opacity="0" fill="#333"/><path d="M746.7 208.44c-5.03 0-9.1-4.1-9.1-9.12 0-5.03 4.1-9.1 9.15-9.1 5.03 0 9.1 4.1 9.1 9.13 0 3.43-1.73 6.34-4.74 7.98-1.4.77-2.78 1.1-4.4 1.1zm0-15.3c-3.47-.03-6.32 2.77-6.34 6.27-.02 2.38 1.2 4.4 3.3 5.5 1.96 1.08 4.15 1.08 6.13 0 2.13-1.12 3.35-3.2 3.32-5.62-.08-3.46-2.94-6.23-6.4-6.15zM753.28 255.1h-44.13c-.75 0-1.36-.62-1.36-1.38v-2.93c-.06-10.62 6.97-19.54 17.28-22.04.37-.1.7-.06 1.03.1 3.3 1.77 6.9 1.77 10.22 0 .28-.16.6-.2.98-.1 10.36 2.48 17.4 11.4 17.34 22.03v2.92c0 .76-.6 1.37-1.36 1.37zm-42.73-2.76h41.33v-1.55c0-9.14-5.9-16.82-14.76-19.2-3.9 1.88-7.97 1.88-11.86 0-8.85 2.38-14.7 10.06-14.7 19.2z" stroke="#fff" stroke-opacity="0" fill="#333"/><path d="M731.26 232.9c-2.2 0-4.05-.46-6-1.5-6-3.3-8.22-10.82-4.93-16.84 3.3-6 10.83-8.2 16.87-4.94 6 3.3 8.23 10.82 4.94 16.84-1.2 2.18-2.75 3.75-4.94 4.94-1.9 1.04-3.78 1.5-5.94 1.5zm0-21.7c-3.6-.04-6.7 1.77-8.45 4.95-2.47 4.58-.78 10.34 3.8 12.84 3 1.58 6.28 1.58 9.26 0 3.2-1.75 5.04-4.85 5-8.47-.08-5.2-4.38-9.4-9.6-9.32z" stroke="#fff" stroke-opacity="0" fill="#333"/><path d="M762.68 224.1h-32.2c-.55 0-1-.44-1-1v-2.13c-.03-7.74 5.1-14.25 12.62-16.08.27-.08.5-.04.75.07 2.4 1.3 5.03 1.3 7.45 0 .2-.1.45-.15.72-.08 7.55 1.8 12.68 8.3 12.65 16.07v2.13c0 .56-.45 1-1 1zm-31.18-2h30.15v-1.13c0-6.66-4.3-12.26-10.77-14-2.83 1.37-5.8 1.37-8.64 0-6.46 1.74-10.74 7.34-10.74 14z" stroke="#fff" stroke-opacity="0" stroke-width=".73" fill="#fff" fill-opacity="0"/><path d="M732 224.1h-32.2c-.54 0-.98-.44-.98-1v-2.13c-.04-7.74 5.1-14.25 12.6-16.08.28-.08.52-.04.76.07 2.4 1.3 5.03 1.3 7.45 0 .2-.1.45-.15.72-.08 7.55 1.8 12.68 8.3 12.65 16.07v2.13c0 .56-.45 1-1 1zm-31.17-2h30.15v-1.13c0-6.66-4.3-12.26-10.77-14-2.82 1.37-5.8 1.37-8.63 0-6.46 1.74-10.74 7.34-10.74 14z" stroke="#fff" stroke-opacity="0" stroke-width=".73" fill="#fff" fill-opacity="0"/><path d="M847.94 264.7h65.8v64.86h-65.8V264.7z" stroke="#fff" stroke-opacity="0" fill="#693cc5"/><path d="M871.88 301.84c1.17.4 2.2.6 3.44.63.78.07 1.47-.12 2.12-.58.5-.47.75-1.05.72-1.74.06-.7-.16-1.33-.68-1.84-.7-.45-1.42-.63-2.25-.57-1 .02-1.83.07-2.8.18v-1.22l.34-5.33h6.6v1.43h-5.1l-.25 3.63c.6-.12 1.13-.17 1.76-.17 1.16-.07 2.17.27 3.05 1 .8.77 1.17 1.73 1.1 2.82.04 1.12-.4 2.1-1.27 2.82-1 .8-2.12 1.14-3.4 1.1-1.25 0-2.3-.23-3.45-.73zM886.22 296.64h.32c1.1-.07 2.04.23 2.87.93.77.7 1.12 1.58 1.07 2.6.03 1.1-.42 2.06-1.3 2.77-1.03.76-2.14 1.1-3.43 1.04-1.2 0-2.25-.23-3.36-.7v-1.44c1.13.4 2.15.6 3.36.63.8.07 1.48-.14 2.12-.6.53-.45.8-1.04.74-1.72 0-1.44-.92-2.17-2.76-2.17-.62 0-1.14.03-1.76.1v-1.18l3.8-4.1h-5.3v-1.45h7.36v1.4z" stroke="#fff" stroke-opacity="0" fill="#fff"/><path d="M880.84 313.56c-.17 0-.3-.03-.45-.12-3-1.73-5.8-2.8-9.2-3.46-1.86-.32-7.9-1.73-7.9-6.05 0-1.95.78-3.26 1.76-4.9 1.5-2.2 2.28-4.44 2.4-7.1 0-2.56-.68-4.7-2.12-6.85-.2-.32-.17-.7.07-1.02l1.42-1.73c.28-.32.73-.42 1.12-.2 1.9 1.1 3.7 1.57 5.92 1.6 2.42.04 4.5-.6 6.46-2 .3-.23.73-.23 1 0 2 1.4 4.08 2.04 6.5 2 2.17-.03 4.03-.54 5.92-1.6.4-.22.85-.12 1.13.2l1.4 1.73c.24.28.28.7.07 1.02-1.44 2.1-2.07 4.3-2.1 6.85 0 3.07 1.26 5.18 2.38 7.1.98 1.64 1.75 2.95 1.75 4.9 0 4.32-6.03 5.73-7.9 6.05-3.4.67-6.2 1.7-9.17 3.46-.14.1-.28.12-.46.12zm-13.67-28.96c1.36 2.3 2 4.58 2 7.23 0 3.56-1.44 6.02-2.63 7.97-.88 1.54-1.48 2.56-1.48 4.03 0 3.08 5.37 4.2 6.42 4.4 3.47.66 6.28 1.72 9.33 3.45 3.06-1.73 5.9-2.8 9.33-3.46 1.1-.2 6.45-1.3 6.45-4.4 0-1.46-.6-2.48-1.5-4.02-1.16-1.95-2.63-4.4-2.63-7.97.03-2.65.66-4.93 2.07-7.23l-.57-.67c-1.96 1-3.9 1.47-6.13 1.47-2.6.03-4.8-.58-7-1.98-2.2 1.4-4.43 2-7.03 1.98-2.25 0-4.14-.48-6.14-1.47z" stroke="#fff" stroke-opacity="0" fill="#fff"/><path d="M880.85 318.75c-.2 0-.4-.04-.57-.17-3.1-2.2-6.13-3.54-9.86-4.32-7.23-1.3-11.52-5.23-11.52-10.42.1-2.63.8-4.88 2.32-7.08.96-1.6 1.75-2.98 1.75-4.9-.08-2.62-1.18-4.82-3.2-6.6-.4-.26-.48-.82-.17-1.2.04 0 .04-.05.04-.05 0-.08 5.17-6.17 6.36-7.72.13-.26.4-.4.65-.4.3 0 .53.1.75.3 1.67 1.95 3.8 3.03 6.44 3.16 2.46 0 4.38-1.08 6.23-3.45.35-.4.96-.5 1.35-.14l.14.13c1.84 2.4 3.76 3.44 6.22 3.44 2.63-.13 4.78-1.2 6.44-3.15.22-.23.44-.3.75-.3.26 0 .52.12.65.38 1.2 1.55 6.32 7.64 6.36 7.73.13.18.22.4.17.66 0 .26-.13.43-.3.6-2.02 1.78-3.1 3.98-3.2 6.6 0 1.92.83 3.3 1.75 4.9 1.54 2.2 2.24 4.45 2.32 7.08 0 5.2-4.3 9.12-11.52 10.42-3.73.78-6.75 2.07-9.86 4.32-.13.1-.3.17-.5.17zM861.6 284.5c2.12 2.06 3.17 4.48 3.2 7.37 0 2.38-1 4.1-2 5.8-1.05 1.85-2.06 3.54-2.06 6.22 0 6.3 7.67 8.15 10 8.6 3.8.76 6.92 2.06 10.1 4.22 3.17-2.16 6.28-3.46 10.1-4.23 2.32-.45 10-2.3 10-8.6 0-2.7-1.02-4.33-2.07-6.23-1-1.73-2.02-3.46-2.02-5.8.04-2.9 1.1-5.3 3.2-7.38-1.18-1.4-3.8-4.55-5.2-6.32-2 1.9-4.3 2.9-7.03 2.98-2.85 0-5.26-1.17-7-3.33-1.8 2.16-4.22 3.33-7.07 3.33-2.7-.1-5.04-1.08-7-2.98-1.28 1.77-3.95 4.92-5.14 6.3z" stroke="#fff" stroke-opacity="0" fill="#fff"/><use xlink:href="#d" transform="matrix(1,0,0,1,817.9408329966116,338.56202646859134) translate(15.101851851851848 12.444444444444446)"/><use xlink:href="#e" transform="matrix(1,0,0,1,817.9408329966116,338.56202646859134) translate(78.14506172839506 12.444444444444446)"/><path d="M764.17 222.66h104.67c6.62 0 12 5.37 12 12v29.54" stroke="#333" fill="none"/><path d="M764.18 223.16h-.54l.03-.06v-.94h.5zM881.34 264.7h-1v-.5h1z" fill="#333"/><path d="M1016.5 224.1h-16.8c-.77 0-1.38-.62-1.38-1.37v-2.06c0-7.7 5.05-14.14 12.55-15.95.35-.08.67-.04 1 .14 2.2 1.18 4.6 1.18 6.8 0 .32-.18.63-.22.98-.14 1.97.5 3.6 1.2 5.27 2.3l-1.55 2.3c-1.25-.8-2.42-1.36-3.88-1.74-2.8 1.28-5.68 1.28-8.47 0-5.98 1.67-9.95 6.9-9.95 13.1v.67h15.43z" stroke="#fff" stroke-opacity="0" fill="#333"/><path d="M1015.24 208.44c-5 0-9.05-4.05-9.05-9.04 0-4.98 4.04-9.03 9.04-9.03 5-.06 9.07 3.96 9.13 8.93.03 3.45-1.7 6.4-4.75 8.02-1.4.78-2.76 1.12-4.38 1.12zm0-15.33c-3.5 0-6.35 2.82-6.36 6.3 0 2.37 1.2 4.4 3.3 5.52 1.97 1.06 4.15 1.06 6.13 0 2.12-1.14 3.34-3.2 3.3-5.6-.03-3.46-2.9-6.22-6.36-6.2zM1061.8 224.1H1045v-2.75h15.42v-.68c0-6.2-3.97-11.43-9.94-13.1-2.8 1.3-5.68 1.3-8.48 0-1.46.4-2.66.97-3.92 1.84l-1.57-2.26c1.7-1.17 3.32-1.9 5.3-2.4.34-.1.68-.05 1 .13 2.2 1.18 4.6 1.18 6.83 0 .32-.18.64-.22.98-.14 7.5 1.8 12.57 8.25 12.57 15.94v2.06c0 .75-.62 1.36-1.36 1.37z" stroke="#fff" stroke-opacity="0" fill="#333"/><path d="M1046.2 208.44c-5.03 0-9.1-4.1-9.1-9.12 0-5.03 4.1-9.1 9.15-9.1 5.03 0 9.1 4.1 9.1 9.13 0 3.43-1.73 6.34-4.74 7.98-1.4.77-2.78 1.1-4.4 1.1zm0-15.3c-3.47-.03-6.32 2.77-6.34 6.27-.02 2.38 1.2 4.4 3.3 5.5 1.96 1.08 4.15 1.08 6.13 0 2.13-1.12 3.35-3.2 3.32-5.62-.08-3.46-2.94-6.23-6.4-6.15zM1052.78 255.1h-44.13c-.75 0-1.36-.62-1.36-1.38v-2.93c-.06-10.62 6.97-19.54 17.28-22.04.37-.1.7-.06 1.03.1 3.3 1.77 6.9 1.77 10.22 0 .28-.16.6-.2.98-.1 10.36 2.48 17.4 11.4 17.34 22.03v2.92c0 .76-.6 1.37-1.36 1.37zm-42.73-2.76h41.33v-1.55c0-9.14-5.9-16.82-14.76-19.2-3.9 1.88-7.97 1.88-11.86 0-8.85 2.38-14.7 10.06-14.7 19.2z" stroke="#fff" stroke-opacity="0" fill="#333"/><path d="M1030.76 232.9c-2.2 0-4.05-.46-6-1.5-6-3.3-8.22-10.82-4.93-16.84 3.3-6 10.83-8.2 16.87-4.94 6 3.3 8.23 10.82 4.94 16.84-1.2 2.18-2.75 3.75-4.94 4.94-1.9 1.04-3.78 1.5-5.94 1.5zm0-21.7c-3.6-.04-6.7 1.77-8.45 4.95-2.47 4.58-.78 10.34 3.8 12.84 3 1.58 6.28 1.58 9.26 0 3.2-1.75 5.04-4.85 5-8.47-.08-5.2-4.38-9.4-9.6-9.32z" stroke="#fff" stroke-opacity="0" fill="#333"/><path d="M1062.18 224.1h-32.2c-.55 0-1-.44-1-1v-2.13c-.03-7.74 5.1-14.25 12.62-16.08.27-.08.5-.04.75.07 2.4 1.3 5.03 1.3 7.45 0 .2-.1.45-.15.72-.08 7.55 1.8 12.68 8.3 12.65 16.07v2.13c0 .56-.45 1-1 1zm-31.18-2h30.15v-1.13c0-6.66-4.3-12.26-10.77-14-2.83 1.37-5.8 1.37-8.64 0-6.46 1.74-10.74 7.34-10.74 14z" stroke="#fff" stroke-opacity="0" stroke-width=".73" fill="#fff" fill-opacity="0"/><path d="M1031.5 224.1h-32.2c-.54 0-.98-.44-.98-1v-2.13c-.04-7.74 5.1-14.25 12.6-16.08.28-.08.52-.04.76.07 2.4 1.3 5.03 1.3 7.45 0 .2-.1.45-.15.72-.08 7.56 1.8 12.68 8.3 12.65 16.07v2.13c0 .56-.45 1-1 1zm-31.17-2h30.15v-1.13c0-6.66-4.3-12.26-10.77-14-2.82 1.37-5.8 1.37-8.63 0-6.46 1.74-10.74 7.34-10.74 14z" stroke="#fff" stroke-opacity="0" stroke-width=".73" fill="#fff" fill-opacity="0"/><path d="M997.82 222.66H892.84c-6.63 0-12 5.37-12 12v29.54" stroke="#333" fill="none"/><path d="M998.32 223.1l.02.06h-.54v-1h.52zM881.34 264.7h-1v-.5h1z" fill="#333"/><path d="M423.75 1070.27h346.33v137.8H423.75z" fill="#147eba" fill-opacity=".13"/><path d="M423.75 1070.27h56v56h-56v-56z" stroke="#fff" stroke-opacity="0" fill="#147eba"/><path d="M467.13 1092.45c-.16-.17-.35-.25-.56-.25h-5.15v-5.58c-.03-2.54-.97-4.7-2.84-6.4-1.9-1.83-4.15-2.75-6.77-2.75-2.64 0-4.9.83-6.8 2.62-1.9 1.7-2.86 3.86-2.9 6.4v5.66h-5.14c-.25 0-.44.08-.6.24-.15.17-.2.34-.2.6v25.28c0 .42.33.8.8.8h29.57c.47 0 .82-.38.82-.8v-25.3c0-.2-.07-.37-.22-.53zm-23.47-5.9c.04-2.13.82-3.88 2.38-5.3 1.62-1.5 3.52-2.2 5.74-2.2 2.2 0 4.12.75 5.7 2.25 1.54 1.4 2.32 3.2 2.32 5.32v5.58h-16.17zm22.1 30.94h-28.02v-23.72h28z" stroke="#fff" stroke-opacity="0" fill="#fff"/><path d="M450.94 1107.58v6.24h1.6v-6.23c2.13-.4 3.63-2.2 3.64-4.36 0-2.43-1.98-4.4-4.42-4.43-2.2-.02-4.05 1.52-4.42 3.7-.4 2.4 1.2 4.67 3.6 5.08zm.82-7.16c.78 0 1.44.27 2 .83.55.55.82 1.2.8 2 .03 1.54-1.2 2.8-2.74 2.8h-.06c-1.56.13-2.92-1.04-3.03-2.6-.12-1.56 1.05-2.92 2.6-3.03h.43z" stroke="#fff" stroke-opacity="0" fill="#fff"/><path d="M839.5 942.02H812c-6.63 0-12-5.37-12-12V868.2c0-6.63-5.37-12-12-12H616.25c-6.63 0-12 5.37-12 12v27.5" stroke="#333" fill="none"/><path d="M840 942.52h-.5v-1h.5zM604.75 896.2h-1v-.52h1z" fill="#333"/><path d="M603.56 768.6c0 2.3 1.86 4.15 4.15 4.15h254.47c6.63 0 12 5.37 12 12v122.6" stroke="#333" fill="none"/><path d="M604.06 768.3v.3h-1v-.7zM874.67 907.85h-1v-.5h1z" fill="#333"/><path d="M604.25 976.7l.25 126.6" stroke="#333" fill="none"/><path d="M604.75 976.7h-1v-.5h1zM605 1103.8h-1v-.52h1z" fill="#333"/><path d="M572.08 1103.8h64.85v64.85h-64.85v-64.85z" stroke="#fff" stroke-opacity="0" stroke-width="2" fill="#3b48cc"/><path d="M613.98 1128.2c0-2.5-4.92-3.66-9.52-3.66s-9.5 1.17-9.5 3.67c0 .15 0 .24.03.38v15.6c-.05 2.6 4.9 3.7 9.5 3.7 4.63 0 9.5-1.13 9.5-3.63v-16.04zm-9.5-1.93c5.03 0 7.78 1.38 7.78 1.94 0 .57-2.73 1.95-7.78 1.95-5.07 0-7.78-1.36-7.78-1.94 0-.55 2.73-1.93 7.78-1.93zm7.78 17.98c0 .56-2.73 1.9-7.78 1.9-5.05 0-7.78-1.34-7.78-1.9v-2.73c1.8 1 4.88 1.47 7.78 1.47 2.9 0 5.93-.48 7.78-1.46zm0-4.93c0 .56-2.73 1.94-7.78 1.94-5.07 0-7.78-1.38-7.78-1.94h.02v-3.3c1.83 1 4.88 1.46 7.78 1.46 2.9 0 5.93-.47 7.78-1.43zm0-5.5c0 .55-2.73 1.95-7.78 1.95-5.07 0-7.78-1.4-7.78-1.96h.02v-3.35c1.85.98 4.86 1.42 7.78 1.42s6-.46 7.78-1.47zM585.84 1156.12h5.7v1.73h-7.8c-.47 0-.85-.38-.85-.87v-7.78h1.7v5.7l6.5-6.5 1.2 1.23zM626.12 1149.2v7.78c0 .5-.38.87-.87.87h-7.78v-1.73h5.7l-6.4-6.4 1.23-1.22 6.4 6.4v-5.7zM626.12 1115.48v7.78h-1.73v-5.7l-6.4 6.4-1.22-1.24 6.38-6.38h-5.7v-1.73h7.8c.48 0 .86.4.86.88zM592.3 1122.82l-1.2 1.2-6.5-6.47v5.7h-1.7v-7.78c0-.5.37-.87.85-.87h7.78v1.72h-5.7zM591.24 1143.97c-5.3-1.9-8.3-4.8-8.3-7.96 0-3.15 3-6.04 8.3-7.96l.6 1.63c-4.5 1.62-7.18 3.98-7.18 6.34 0 2.37 2.68 4.72 7.17 6.35zM617.28 1144.16l-.55-1.64c4.8-1.62 7.66-4.05 7.66-6.5 0-2.47-2.87-4.9-7.67-6.53l.55-1.65c5.62 1.9 8.84 4.88 8.84 8.16 0 3.3-3.22 6.26-8.84 8.16z" stroke="#fff" stroke-opacity="0" stroke-width="2" fill="#fff"/><path d="M633 768.75h-27.85c-1.66 0-2.97-1.32-2.97-2.98v-27.8c0-1.68 1.35-3.03 3.04-3.03h27.72c1.7 0 3.04 1.35 3.04 3.04v27.8c0 1.65-1.32 2.97-2.97 2.97zm-27.78-31.04c-.14 0-.27.15-.27.28v27.8c0 .13.07.2.2.2H633c.14 0 .2-.07.2-.2v-27.8c0-.13-.13-.27-.26-.27z" stroke="#fff" stroke-opacity="0" fill="#d86613"/><path d="M599.6 753.22h-11.24c-1.7-.03-3.04-1.42-3-3.1v-27.6c-.04-1.68 1.3-3.07 3-3.1h27.76c1.7 0 3.04 1.35 3.04 3.04V732.5h-2.77v-9.97c0-.17-.1-.3-.28-.3h-27.76c-.13 0-.27.13-.3.3v27.58c.03.18.17.32.3.32h11.2z" stroke="#fff" stroke-opacity="0" fill="#d86613"/><path d="M582.86 737.7h-8.7c-1.68 0-3.03-1.35-3.03-3.04v-27.72c0-1.7 1.35-3.04 3.04-3.04h27.72c1.68 0 3.04 1.35 3.04 3.04v9.97h-2.78v-9.96c0-.14-.13-.27-.27-.27h-27.73c-.13 0-.27.13-.27.27v27.72c0 .13.14.27.27.27h8.7z" stroke="#fff" stroke-opacity="0" fill="#d86613"/><path d="M616.2 753.22h-27.87c-1.66 0-2.97-1.3-2.97-2.97v-27.8c0-1.68 1.35-3.03 3.04-3.03h27.72c1.7 0 3.04 1.35 3.04 3.04v27.8c0 1.65-1.32 2.96-2.97 2.96zm-27.8-31.03c-.14 0-.27.13-.27.26v27.8c0 .12.07.2.2.2h27.86c.12 0 .2-.08.2-.2v-27.8c0-.13-.15-.27-.28-.27z" stroke="#fff" stroke-opacity="0" fill="#fff" fill-opacity="0"/><path d="M601.96 737.7H574.1c-1.65 0-2.97-1.32-2.97-2.97v-27.8c0-1.68 1.35-3.03 3.04-3.03h27.72c1.68 0 3.04 1.35 3.04 3.04v27.8c0 1.64-1.32 2.96-2.98 2.96zm-27.8-31.03c-.12 0-.26.13-.26.27v27.8c0 .12.07.2.2.2h27.86c.14 0 .2-.08.2-.2v-27.8c0-.14-.13-.27-.27-.27z" stroke="#fff" stroke-opacity="0" fill="#fff" fill-opacity="0"/><use xlink:href="#f" transform="matrix(1,0,0,1,541.1309263939994,777.7470022724368) translate(9.999999999999993 12.444444444444446)"/><use xlink:href="#g" transform="matrix(1,0,0,1,541.1309263939994,777.7470022724368) translate(53.987654320987644 12.444444444444446)"/><use xlink:href="#h" transform="matrix(1,0,0,1,541.1309263939994,777.7470022724368) translate(89.93827160493828 12.444444444444446)"/><path d="M479.8 628.9h113.5v19.7H479.8z" stroke="#000" stroke-opacity="0" fill="#fff" fill-opacity="0"/><use xlink:href="#i" transform="matrix(1,0,0,1,484.8010266667666,633.9046203392376) translate(0 10.666666666666668)"/><use xlink:href="#j" transform="matrix(1,0,0,1,484.8010266667666,633.9046203392376) translate(31.51851851851852 10.666666666666668)"/><path d="M479.8 1080h113.5v19.68H479.8z" stroke="#000" stroke-opacity="0" fill="#fff" fill-opacity="0"/><use xlink:href="#k" transform="matrix(1,0,0,1,484.80102666676635,1084.9890045107425) translate(0 10.666666666666668)"/><use xlink:href="#l" transform="matrix(1,0,0,1,484.80102666676635,1084.9890045107425) translate(0 26.666666666666668)"/><path d="M840 907.85h68.34v68.34H840v-68.35z" stroke="#fff" stroke-opacity="0" stroke-width="2" fill="#cc2264"/><path d="M859.77 927.9c7.9-7.9 20.67-7.87 28.58.03 2.24 2.24 3.7 4.6 4.78 7.6l1.7-.6c-2.28-6.57-6.94-11.25-13.5-13.54-11.5-4.03-24.06 2.02-28.1 13.52l1.72.6c1.08-3 2.53-5.38 4.82-7.62zM888.3 956.15c-7.9 7.88-20.7 7.88-28.57 0-2.3-2.27-3.8-4.64-4.83-7.67l-1.7.6c1.16 3.3 2.74 5.86 5.2 8.34 8.62 8.6 22.57 8.6 31.2 0 2.5-2.48 4.12-5.07 5.24-8.4l-1.7-.6c-1.04 3.06-2.54 5.44-4.83 7.73zM858.36 942c0-1.5-.52-2.75-1.55-3.8-2.08-2.06-5.44-2.06-7.53 0-2.07 2.1-2.07 5.46 0 7.55 2.1 2.07 5.45 2.07 7.54 0 1.04-1.05 1.56-2.3 1.56-3.76zm-2.87 2.46c-1.4 1.3-3.56 1.3-4.94 0-1.36-1.37-1.35-3.58.02-4.94.67-.67 1.5-1 2.44-1 .97 0 1.8.33 2.47 1 1.35 1.37 1.35 3.58 0 4.94zM899.05 938.3c-2.08-2.08-5.43-2.08-7.5 0-2.08 2.07-2.08 5.42 0 7.5 2.07 2.07 5.42 2.07 7.5 0 2.07-2.08 2.07-5.43 0-7.5zm-1.3 6.2c-1.36 1.36-3.56 1.36-4.92 0-1.35-1.35-1.36-3.55 0-4.9 1.32-1.4 3.53-1.48 4.93-.16 1.4 1.3 1.45 3.52.13 4.92l-.14.15z" stroke="#fff" stroke-opacity="0" stroke-width="2" fill="#fff"/><path d="M866.58 950.84c3.75-3.73 11.35-3.73 15.1 0 .16.18.38.27.63.27.52 0 .92-.4.92-.9 0-.25-.1-.47-.27-.65-1.93-2.15-2.84-4.64-2.73-7.53-.1-2.9.8-5.4 2.73-7.55.36-.34.36-.92 0-1.27-.35-.36-.93-.36-1.28 0-3.74 3.73-11.34 3.73-15.1 0-.33-.36-.9-.36-1.26 0-.35.35-.35.93 0 1.27 1.96 2.15 2.88 4.66 2.77 7.55.1 2.9-.8 5.4-2.76 7.53-.17.18-.26.4-.26.65s.1.47.27.64c.36.36.94.36 1.28 0zm2.37-13.98c3.47 1.34 6.9 1.34 10.36 0-1.32 3.47-1.32 6.85 0 10.32-3.46-1.34-6.88-1.34-10.35 0 1.32-3.47 1.32-6.85 0-10.32z" stroke="#fff" stroke-opacity="0" stroke-width="2" fill="#fff"/><path d="M885.22 945.75l3.07-3.1c.34-.36.34-.94 0-1.3l-3.1-3.08-1.3 1.3 1.57 1.53h-4.12v1.82h4.12l-1.54 1.54zM863.2 945.77l3.1-3.1c.36-.37.36-.94 0-1.3l-3.1-3.1-1.3 1.28 1.57 1.55h-4v1.83h4l-1.56 1.56z" stroke="#fff" stroke-opacity="0" stroke-width="2" fill="#fff"/><use xlink:href="#m" transform="matrix(1,0,0,1,810,985.19335000468) translate(45.5 14.4)"/><path d="M635.22 976.2h-46.08c-.94 0-1.68-.78-1.68-1.7v-61.3c0-.9.74-1.7 1.68-1.7h46.08c.94 0 1.68.8 1.68 1.7v61.3c0 .92-.74 1.7-1.68 1.7zm-44.35-3.43h42.62v-57.83h-42.63z" stroke="#fff" stroke-opacity="0" fill="#d86613"/><path d="M603.2 930.24h-7.66c-.94 0-1.7-.77-1.7-1.7v-7.66c0-.94.76-1.7 1.7-1.7h7.67c.95 0 1.72.76 1.72 1.7v7.65c0 .94-.77 1.7-1.7 1.7zm-5.95-3.4h4.25v-4.26h-4.25zM603.2 948.1h-7.66c-.94 0-1.7-.76-1.7-1.7v-7.65c0-.94.76-1.7 1.7-1.7h7.67c.95 0 1.72.76 1.72 1.7v7.65c0 .94-.77 1.7-1.7 1.7zm-5.95-3.4h4.25v-4.25h-4.25zM603.2 966h-7.66c-.94 0-1.7-.77-1.7-1.7v-7.68c0-.94.76-1.7 1.7-1.7h7.67c.95 0 1.72.76 1.72 1.7v7.67c0 .93-.77 1.7-1.7 1.7zm-5.95-3.4h4.25v-4.28h-4.25zM607.07 923h23.03v3.4h-23.03V923zM607.07 940.86h23.03v3.4h-23.03v-3.4zM607.07 958.75h23.03v3.4h-23.03v-3.4z" stroke="#fff" stroke-opacity="0" fill="#d86613"/><path d="M589.18 968.53h-7.7c-.95 0-1.7-.77-1.7-1.68v-61.32c0-.9.75-1.68 1.7-1.68h46.07c.94 0 1.68.78 1.68 1.68v7.7h-3.4v-5.95H583.2v57.83h5.98z" stroke="#fff" stroke-opacity="0" fill="#d86613"/><path d="M581 960.9h-7.72c-.94 0-1.68-.8-1.68-1.7V897.9c0-.9.74-1.7 1.68-1.7h46.1c.92 0 1.67.8 1.67 1.7v7.7h-3.42v-5.96H575v57.84h6z" stroke="#fff" stroke-opacity="0" fill="#d86613"/><path d="M589.18 968.53h-7.7c-.95 0-1.7-.77-1.7-1.68v-61.32c0-.9.75-1.68 1.7-1.68h46.07c.94 0 1.68.78 1.68 1.68v63z" stroke="#fff" stroke-opacity="0" fill="#fff" fill-opacity="0"/><path d="M581 960.9h-7.72c-.94 0-1.68-.8-1.68-1.7V897.9c0-.9.74-1.7 1.68-1.7h46.1c.92 0 1.67.8 1.67 1.7v63z" stroke="#fff" stroke-opacity="0" fill="#fff" fill-opacity="0"/><use xlink:href="#n" transform="matrix(1,0,0,1,541.6022328835951,985.19335000468) translate(2.0749999999999957 14.4)"/><use xlink:href="#o" transform="matrix(1,0,0,1,541.6022328835951,985.19335000468) translate(52.975 14.4)"/><path d="M424.67 870.73c0-4.42 3.58-8 8-8H763c4.42 0 8 3.58 8 8V1032c0 4.42-3.58 8-8 8H432.67c-4.42 0-8-3.58-8-8z" fill="#fff" fill-opacity="0"/><path d="M426.14 866.37l.87-1.3 1.3-.87m2.84-1.16l1.53-.3h2m4.04 0h4.04m4.03 0h4.02m4.02 0h4.03m4.03 0h4.03m4.04 0h4.02m4.03 0H483m4.03 0h4.03m4.03 0h4.04m4.02 0h4.03m4.02 0h4.03m4.03 0h4.03m4.03 0h4.03m4.03 0h4.02m4.03 0h4.03m4.03 0h4.03m4.03 0h4.03m4.02 0h4.03m4.03 0h4.02m4.03 0h4.03m4.03 0h4.02m4.03 0h4.03m4.02 0h4.03m4.03 0H620m4.02 0h4.03m4.02 0h4.03m4.03 0h4.03m4.03 0h4.02m4.02 0h4.03m4.03 0h4.03m4.03 0h4.03m4.02 0h4.02m4.03 0h4.03m4.03 0h4.03m4.03 0h4m4.04 0h4.03m4.03 0h4.03m4.03 0h4.03m4 0h4.04m4.03 0h4.03m4.03 0h4.03m4.02 0H763l1.53.3m2.83 1.16l1.3.87.87 1.3m1.16 2.83l.3 1.53v2.02m0 4.03v4.03m0 4.04v4.03m0 4.04v4.04m0 4.03V905m0 4.03v4.03m0 4.04v4.03m0 4.03v4.03m0 4.02v4.03m0 4.04v4.02m0 4.03v4.03m0 4.03v4.05m0 4.03v4.03m0 4.04v4.03m0 4.03v4.04m0 4.03v4.03m0 4.03v4.03m0 4.03v4.03m0 4.03v4.03m0 4.02v4.03m0 4.03v2.02l-.3 1.53m-1.17 2.83l-.87 1.3-1.3.87m-2.83 1.16l-1.53.3h-2.02m-4.02 0h-4.03m-4.03 0h-4.03m-4.03 0h-4.03m-4 0h-4.04m-4.03 0h-4.03m-4.03 0h-4.03m-4.03 0h-4m-4.04 0h-4.03m-4.03 0h-4.03m-4.03 0h-4.02m-4.03 0h-4.04m-4.03 0h-4.03m-4.03 0h-4.03m-4.02 0h-4.03m-4.04 0h-4.03m-4.03 0h-4.03m-4.02 0h-4.03m-4.03 0h-4.04m-4.03 0h-4.03m-4.02 0h-4.03m-4.03 0h-4.03m-4.04 0h-4.03m-4.03 0h-4.02m-4.03 0h-4.03m-4.03 0h-4.04m-4.03 0h-4.02m-4.02 0h-4.03m-4.03 0h-4.03m-4.04 0h-4.03m-4.02 0h-4.02m-4.03 0h-4.03m-4.03 0h-4.04m-4.02 0h-4.03m-4.02 0h-4.03m-4.03 0H479m-4.04 0h-4.02m-4.03 0h-4.02m-4.03 0h-4.03m-4.03 0h-4.03m-4.03 0h-4.03m-4.02 0h-2l-1.54-.3m-2.84-1.17l-1.3-.87-.86-1.3m-1.16-2.83l-.3-1.53v-2.02m0-4.03v-4.03m0-4.03v-4.04m0-4.03v-4.04m0-4.04v-4.03m0-4.03v-4.03m0-4.03v-4.04m0-4.03v-4.03m0-4.03v-4.02m0-4.03v-4.04m0-4.02v-4.03m0-4.03v-4.03m0-4.05v-4.03m0-4.03v-4.04m0-4.03v-4.03m0-4.04v-4.03m0-4.03v-4.03m0-4.03v-4.03m0-4.03v-4.03m0-4.03v-4.02m0-4.03v-2.02l.3-1.53" stroke="#5a6c86" fill="none"/><path d="M1203.62 851.93h-46.08c-.94 0-1.68-.77-1.68-1.68v-61.3c0-.92.74-1.7 1.68-1.7h46.08c.94 0 1.68.78 1.68 1.7v61.3c0 .9-.74 1.68-1.68 1.68zm-44.35-3.42h42.62V790.7h-42.63z" stroke="#fff" stroke-opacity="0" fill="#d86613"/><path d="M1171.6 805.98h-7.66c-.94 0-1.7-.77-1.7-1.7v-7.66c0-.94.76-1.7 1.7-1.7h7.67c.95 0 1.7.76 1.7 1.7v7.65c0 .94-.75 1.7-1.7 1.7zm-5.95-3.4h4.25v-4.26h-4.25zM1171.6 823.85h-7.66c-.94 0-1.7-.76-1.7-1.7v-7.66c0-.95.76-1.7 1.7-1.7h7.67c.95 0 1.7.75 1.7 1.7v7.65c0 .94-.75 1.7-1.7 1.7zm-5.95-3.4h4.25v-4.26h-4.25zM1171.6 841.74h-7.66c-.94 0-1.7-.77-1.7-1.7v-7.68c0-.94.76-1.7 1.7-1.7h7.67c.95 0 1.7.76 1.7 1.7v7.67c0 .94-.75 1.7-1.7 1.7zm-5.95-3.4h4.25v-4.28h-4.25zM1175.46 798.74h23.04v3.4h-23.04v-3.4zM1175.46 816.6h23.04v3.4h-23.04v-3.4zM1175.46 834.5h23.04v3.4h-23.04v-3.4z" stroke="#fff" stroke-opacity="0" fill="#d86613"/><path d="M1157.58 844.28h-7.72c-.93 0-1.68-.78-1.68-1.7v-61.3c0-.9.75-1.7 1.68-1.7h46.1c.93 0 1.67.8 1.67 1.7v7.7h-3.4V783h-42.63v57.83h5.98z" stroke="#fff" stroke-opacity="0" fill="#d86613"/><path d="M1149.4 836.63h-7.72c-.94 0-1.68-.77-1.68-1.68v-61.33c0-.9.74-1.7 1.68-1.7h46.08c.94 0 1.68.8 1.68 1.7v7.7h-3.4v-5.96h-42.63v57.84h6z" stroke="#fff" stroke-opacity="0" fill="#d86613"/><path d="M1157.58 844.28h-7.72c-.93 0-1.68-.78-1.68-1.7v-61.3c0-.9.75-1.7 1.68-1.7h46.1c.93 0 1.67.8 1.67 1.7v63z" stroke="#fff" stroke-opacity="0" fill="#fff" fill-opacity="0"/><path d="M1149.4 836.63h-7.72c-.94 0-1.68-.77-1.68-1.68v-61.33c0-.9.74-1.7 1.68-1.7h46.08c.94 0 1.68.8 1.68 1.7v63z" stroke="#fff" stroke-opacity="0" fill="#fff" fill-opacity="0"/><use xlink:href="#p" transform="matrix(1,0,0,1,1110,860.9347282963186) translate(27.525 14.4)"/><use xlink:href="#o" transform="matrix(1,0,0,1,1110,860.9347282963186) translate(27.525 36)"/><path d="M1020 746.47c0-4.42 3.58-8 8-8h284c4.42 0 8 3.58 8 8v161.27c0 4.42-3.58 8-8 8h-284c-4.42 0-8-3.58-8-8z" fill="#fff" fill-opacity="0"/><path d="M1021.47 742.1l.87-1.28 1.3-.88m2.83-1.16l1.53-.3h1.97m3.95 0h3.94m3.95 0h3.95m3.94 0h3.94m3.94 0h3.95m3.94 0h3.95m3.94 0h3.95m3.95 0h3.94m3.94 0h3.94m3.95 0h3.94m3.95 0h3.94m3.95 0h3.95m3.94 0h3.94m3.94 0h3.95m3.94 0h3.95m3.94 0h3.95m3.95 0h3.94m3.94 0h3.94m3.95 0h3.94m3.95 0h3.94m3.95 0h3.95m3.94 0h3.94m3.94 0h3.95m3.94 0h3.95m3.94 0h3.95m3.95 0h3.94m3.94 0h3.94m3.95 0h3.94m3.95 0h3.94m3.95 0h3.95m3.94 0h3.94m3.94 0h3.95m3.94 0h3.95m3.94 0h3.95m3.95 0h3.94m3.94 0h3.94m3.95 0h1.97l1.53.3m2.83 1.16l1.3.88.87 1.3m1.16 2.82l.3 1.53v2.02m0 4.02v4.03m0 4.03v4.04m0 4.03v4.03m0 4.03v4.04m0 4.03v4.04m0 4.04v4.03m0 4.03v4.03m0 4.03V813m0 4.03v4.03m0 4.03v4.02m0 4.03v4.04m0 4.02v4.03m0 4.03v4.03m0 4.04v4.04m0 4.03v4.04m0 4.03v4.03m0 4.04v4.03m0 4.03v4.03m0 4.03v4.03m0 4.03v2l-.3 1.54m-1.17 2.83l-.87 1.3-1.3.87m-2.83 1.16l-1.53.3h-1.97m-3.95 0h-3.94m-3.95 0h-3.95m-3.94 0h-3.94m-3.94 0h-3.95m-3.94 0h-3.95m-3.94 0h-3.95m-3.95 0h-3.94m-3.94 0h-3.94m-3.95 0h-3.94m-3.95 0h-3.94m-3.95 0h-3.95m-3.94 0h-3.94m-3.94 0h-3.95m-3.94 0h-3.95m-3.94 0h-3.95m-3.95 0h-3.94m-3.94 0h-3.94m-3.95 0h-3.94m-3.95 0h-3.94m-3.95 0h-3.95m-3.94 0h-3.94m-3.94 0h-3.95m-3.94 0h-3.95m-3.94 0h-3.95m-3.95 0h-3.94m-3.94 0h-3.94m-3.95 0h-3.94m-3.95 0h-3.94m-3.95 0h-3.95m-3.94 0h-3.94m-3.94 0h-3.95m-3.94 0h-3.95m-3.94 0h-3.95m-3.95 0h-3.94m-3.94 0h-3.94m-3.95 0H1028l-1.53-.3m-2.83-1.16l-1.3-.87-.87-1.3m-1.16-2.83l-.3-1.53v-2m0-4.05v-4.04m0-4.03v-4.03m0-4.03v-4.03m0-4.04v-4.03m0-4.03v-4.03m0-4.02v-4.04m0-4.03v-4.02m0-4.03v-4.03m0-4.03v-4.05m0-4.03v-4.03m0-4.04v-4.03m0-4.03v-4.04m0-4.03v-4.03m0-4.03v-4.03m0-4.03v-4.03m0-4.03v-4.03m0-4.02v-4.03m0-4.03v-4.04m0-4.03v-4.03m0-4.03v-2.03l.3-1.53" stroke="#5a6c86" fill="none"/><path d="M908.84 942.02h27.5c6.63 0 12-5.37 12-12v-186.1c0-6.6 5.37-12 12-12h200.3c6.64 0 12 5.4 12 12v11.63" stroke="#333" fill="none"/><path d="M908.85 942.52h-.5v-1h.5z" fill="#333"/><path d="M1172.65 770.32l-4.64-14.27h9.3z" stroke="#333" fill="#333"/><path d="M340 579.96c0-4.42 3.58-8 8-8h464c4.42 0 8 3.58 8 8v635.64c0 4.42-3.58 8-8 8H348c-4.42 0-8-3.58-8-8z" fill="#fff" fill-opacity="0"/><path d="M341.47 575.6l.87-1.3 1.3-.87m2.83-1.16l1.53-.3h2m4 0h4m4 0h4m4 0h4m4 0h4m4 0h4m4 0h4m4 0h4m4 0h4m4 0h4m4 0h4m4 0h4m4 0h4m4 0h4m4 0h4m4 0h4m4 0h4m4 0h4m4 0h4m4 0h4m4 0h4m4 0h4m4 0h4m4 0h4m4 0h4m4 0h4m4 0h4m4 0h4m4 0h4m4 0h4m4 0h4m4 0h4m4 0h4m4 0h4m4 0h4m4 0h4m4 0h4m4 0h4m4 0h4m4 0h4m4 0h4m4 0h4m4 0h4m4 0h4m4 0h4m4 0h4m4 0h4m4 0h4m4 0h4m4 0h4m4 0h4m4 0h4m4 0h4m4 0h4m4 0h4m4 0h4m4 0h4m4 0h4m4 0h2l1.53.3m2.83 1.16l1.3.87.87 1.3m1.16 2.83l.3 1.53v2m0 4.04v4.02m0 4.02v4.03m0 4.02v4m0 4.03v4.03m0 4.02v4.02m0 4.03v4.02m0 4.02v4.03m0 4.02v4.02m0 4.03v4.02m0 4v4.03m0 4.03v4.02m0 4.02v4.03m0 4.02v4.02m0 4.03v4.02m0 4.02v4.02m0 4.03v4m0 4.03v4.03m0 4.02v4.02m0 4.03v4.02m0 4.02v4.03m0 4.02v4.02m0 4.02V759m0 4v4.03m0 4.03v4.02m0 4.02v4.03m0 4.02v4.02m0 4.02v4.02m0 4.02v4.02m0 4.03v4m0 4.03v4.03m0 4.02v4.02m0 4.03v4.02m0 4.02v4.02m0 4.02v4.02m0 4.02v4.03m0 4v4.03m0 4.03v4.02m0 4.02v4.03m0 4.02v4.02m0 4.02v4.02m0 4.02v4.02m0 4.03v4m0 4.03v4.03m0 4.02V936m0 4.02v4.03m0 4.02v4.02m0 4.02v4.02m0 4.02v4.03m0 4v4.03m0 4.03v4.02m0 4.02v4.02m0 4.03v4.02m0 4.02v4.02m0 4.02v4.02m0 4.03v4m0 4.03v4.02m0 4.03v4.02m0 4.02v4.03m0 4.02v4.02m0 4.02v4.02m0 4.02v4.03m0 4v4.03m0 4.02v4.03m0 4.02v4.02m0 4.03v4.02m0 4.02v4.02m0 4.02v4.02m0 4.02v4.03m0 4.03v4.02m0 4.03v4.02m0 4.02v4.03m0 4.02v4.02m0 4.02v4.02m0 4.02v4.02m0 4.03v4.03m0 4.02v4.03m0 4.02v4.02m0 4.03v4.02m0 4.02v2l-.3 1.53m-1.17 2.84l-.87 1.3-1.3.86m-2.83 1.16l-1.53.3h-2m-4 0h-4m-4 0h-4m-4 0h-4m-4 0h-4m-4 0h-4m-4 0h-4m-4 0h-4m-4 0h-4m-4 0h-4m-4 0h-4m-4 0h-4m-4 0h-4m-4 0h-4m-4 0h-4m-4 0h-4m-4 0h-4m-4 0h-4m-4 0h-4m-4 0h-4m-4 0h-4m-4 0h-4m-4 0h-4m-4 0h-4m-4 0h-4m-4 0h-4m-4 0h-4m-4 0h-4m-4 0h-4m-4 0h-4m-4 0h-4m-4 0h-4m-4 0h-4m-4 0h-4m-4 0h-4m-4 0h-4m-4 0h-4m-4 0h-4m-4 0h-4m-4 0h-4m-4 0h-4m-4 0h-4m-4 0h-4m-4 0h-4m-4 0h-4m-4 0h-4m-4 0h-4m-4 0h-4m-4 0h-4m-4 0h-4m-4 0h-4m-4 0h-4m-4 0h-4m-4 0h-4m-4 0h-4m-4 0h-4m-4 0h-4m-4 0h-4m-4 0h-2l-1.53-.3m-2.83-1.17l-1.3-.87-.87-1.3m-1.16-2.83l-.3-1.53v-2m0-4.03v-4.02m0-4.03v-4.02m0-4.02v-4.03m0-4.02v-4.02m0-4.02v-4.02m0-4.02v-4.02m0-4.03v-4.03m0-4.02v-4.03m0-4.02v-4.02m0-4.03v-4.02m0-4.02v-4.02m0-4.02v-4.02m0-4.02V1109m0-4.03v-4.02m0-4.03v-4.02m0-4.02v-4.03m0-4.02v-4.02m0-4v-4.04m0-4.02v-4.02m0-4.03v-4.03m0-4.02v-4.03m0-4.02v-4.02m0-4.03v-4.02m0-4.02v-4m0-4.04v-4.02m0-4.02v-4.03m0-4.03v-4.02m0-4.03v-4.02m0-4.02v-4.02m0-4.03v-4.02m0-4v-4.04m0-4.02v-4.02m0-4.03v-4.03m0-4.02v-4.03m0-4.02v-4.02m0-4.02v-4.03m0-4.02v-4m0-4.04v-4.02m0-4.02v-4.03m0-4.03v-4.02m0-4.02v-4.03m0-4.02v-4.02m0-4.03v-4.02m0-4v-4.04m0-4.02v-4.02m0-4.03v-4.03m0-4.02v-4.02m0-4.03v-4.02m0-4.02v-4.03m0-4.02v-4m0-4.04v-4.02m0-4.02v-4.03m0-4.03v-4.02m0-4.02v-4.03m0-4.02v-4.02m0-4.03V763m0-4v-4.04m0-4.02v-4.02m0-4.02v-4.03m0-4.02v-4.02m0-4.03v-4.02m0-4.02v-4.03m0-4.02v-4m0-4.04v-4.02m0-4.02v-4.02m0-4.03v-4.02m0-4.02v-4.03m0-4.02v-4.02m0-4.03v-4.02m0-4v-4.03m0-4.03v-4.02m0-4.02v-4.03m0-4.02v-4.02m0-4.03v-4.02m0-4.02v-4.03m0-4.02v-4m0-4.03v-4.03m0-4.02V586m0-4.03v-2l.3-1.54" stroke="#5a6c86" fill="none"/><path d="M960 568c0-4.42 3.58-8 8-8h384c4.42 0 8 3.58 8 8v644c0 4.42-3.58 8-8 8H968c-4.42 0-8-3.58-8-8z" fill="#fff" fill-opacity="0"/><path d="M961.47 563.64l.87-1.3 1.3-.87m2.83-1.16l1.53-.3h2m4 0h4m4 0h4m4 0h4m4 0h4m4 0h4m4 0h4m4 0h4m4 0h4m4 0h4m4 0h4m4 0h4m4 0h4m4 0h4m4 0h4m4 0h4m4 0h4m4 0h4m4 0h4m4 0h4m4 0h4m4 0h4m4 0h4m4 0h4m4 0h4m4 0h4m4 0h4m4 0h4m4 0h4m4 0h4m4 0h4m4 0h4m4 0h4m4 0h4m4 0h4m4 0h4m4 0h4m4 0h4m4 0h4m4 0h4m4 0h4m4 0h4m4 0h4m4 0h4m4 0h4m4 0h4m4 0h4m4 0h4m4 0h2l1.53.3m2.83 1.17l1.3.87.87 1.3m1.16 2.83l.3 1.53v2m0 4.04v4.02m0 4.03v4m0 4.04v4.02m0 4.03v4m0 4.04v4.02m0 4.03v4m0 4.04v4.02m0 4.03v4m0 4.04v4.02m0 4.03v4m0 4.04v4.02m0 4.03v4m0 4.04v4.02m0 4.03v4m0 4.04v4.02m0 4.03v4m0 4.04v4.02m0 4.03v4m0 4.04v4.02m0 4.03v4m0 4.04v4.02m0 4.03v4m0 4.04v4.02m0 4.03v4m0 4.04v4.02m0 4.03v4m0 4.04v4.02m0 4.03v4m0 4.04v4.02m0 4.03v4m0 4.04v4.02m0 4.03v4m0 4.04v4.02m0 4.03v4m0 4.04v4.02m0 4.03v4m0 4.04v4.02m0 4.03v4m0 4.04v4.02m0 4.03v4m0 4.04v4.02m0 4.03v4m0 4.04v4.02m0 4.03v4m0 4.04v4.02m0 4.03v4m0 4.04v4.02m0 4.03v4m0 4.04v4.02m0 4.03v4m0 4.04v4.02m0 4.03v4m0 4.04v4.02m0 4.03v4m0 4.04v4.02m0 4.03v4m0 4.04v4.02m0 4.03v4m0 4.04v4.02m0 4.03v4m0 4.04v4.02m0 4.03v4m0 4.04v4.02m0 4.03v4m0 4.04v4.02m0 4.03v4m0 4.04v4.02m0 4.03v4m0 4.04v4.02m0 4.03v4m0 4.04v4.02m0 4.03v4m0 4.04v4.02m0 4.03v4m0 4.04v4.02m0 4.03v4m0 4.04v4.02m0 4.03v4m0 4.04v4.02m0 4.03v2l-.3 1.53m-1.17 2.83l-.87 1.3-1.3.87m-2.83 1.16l-1.53.3h-2m-4 0h-4m-4 0h-4m-4 0h-4m-4 0h-4m-4 0h-4m-4 0h-4m-4 0h-4m-4 0h-4m-4 0h-4m-4 0h-4m-4 0h-4m-4 0h-4m-4 0h-4m-4 0h-4m-4 0h-4m-4 0h-4m-4 0h-4m-4 0h-4m-4 0h-4m-4 0h-4m-4 0h-4m-4 0h-4m-4 0h-4m-4 0h-4m-4 0h-4m-4 0h-4m-4 0h-4m-4 0h-4m-4 0h-4m-4 0h-4m-4 0h-4m-4 0h-4m-4 0h-4m-4 0h-4m-4 0h-4m-4 0h-4m-4 0h-4m-4 0h-4m-4 0h-4m-4 0h-4m-4 0h-4m-4 0h-4m-4 0h-4m-4 0h-4m-4 0h-4m-4 0h-4m-4 0h-4m-4 0h-2l-1.53-.3m-2.83-1.17l-1.3-.87-.87-1.3m-1.16-2.83l-.3-1.53v-2m0-4.04v-4.02m0-4.03v-4m0-4.04v-4.02m0-4.03v-4m0-4.04v-4.02m0-4.03v-4m0-4.04v-4.02m0-4.03v-4m0-4.04v-4.02m0-4.03v-4m0-4.04v-4.02m0-4.03v-4m0-4.04v-4.02m0-4.03v-4m0-4.04v-4.02m0-4.03v-4m0-4.04v-4.02m0-4.03v-4m0-4.04v-4.02m0-4.03v-4m0-4.04v-4.02m0-4.03v-4m0-4.04v-4.02m0-4.03v-4m0-4.04v-4.02m0-4.03v-4m0-4.04v-4.02m0-4.03v-4m0-4.04v-4.02m0-4.03v-4m0-4.04v-4.02m0-4.03v-4m0-4.04v-4.02m0-4.03v-4m0-4.04v-4.02m0-4.03v-4m0-4.04v-4.02m0-4.03v-4m0-4.04v-4.02m0-4.03v-4m0-4.04v-4.02m0-4.03v-4m0-4.04v-4.02m0-4.03v-4m0-4.04v-4.02m0-4.03v-4m0-4.04v-4.02m0-4.03v-4m0-4.04v-4.02m0-4.03v-4m0-4.04v-4.02m0-4.03v-4m0-4.04v-4.02m0-4.03v-4m0-4.04v-4.02m0-4.03v-4m0-4.04v-4.02m0-4.03v-4m0-4.04v-4.02m0-4.03v-4m0-4.04v-4.02m0-4.03v-4m0-4.04v-4.02m0-4.03v-4m0-4.04v-4.02m0-4.03v-4m0-4.04v-4.02m0-4.03v-4m0-4.04v-4.02m0-4.03v-4m0-4.04v-4.02m0-4.03v-4m0-4.04v-4.02m0-4.03v-4m0-4.04v-4.02m0-4.03v-4m0-4.04v-4.02m0-4.03v-4m0-4.04v-4.02m0-4.03v-2l.3-1.53" stroke="#5a6c86" fill="none"/><path d="M331.13 568c0-4.42 3.58-8 8-8h224c4.42 0 8 3.58 8 8v44c0 4.42-3.58 8-8 8h-224c-4.42 0-8-3.58-8-8z" stroke="#000" stroke-opacity="0" fill="#fff" fill-opacity="0"/><g><use xlink:href="#n" transform="matrix(1,0,0,1,336.1309263939994,565) translate(20.07499999999999 30.025)"/><use xlink:href="#q" transform="matrix(1,0,0,1,336.1309263939994,565) translate(70.975 30.025)"/><use xlink:href="#r" transform="matrix(1,0,0,1,336.1309263939994,565) translate(147.975 30.025)"/></g><path d="M960 562c0-4.42 3.58-8 8-8h224c4.42 0 8 3.58 8 8v44c0 4.42-3.58 8-8 8H968c-4.42 0-8-3.58-8-8z" stroke="#000" stroke-opacity="0" fill="#fff" fill-opacity="0"/><g><use xlink:href="#s" transform="matrix(1,0,0,1,965,559.0002667607151) translate(7.550000000000011 30.025)"/><use xlink:href="#q" transform="matrix(1,0,0,1,965,559.0002667607151) translate(83.50000000000001 30.025)"/><use xlink:href="#r" transform="matrix(1,0,0,1,965,559.0002667607151) translate(160.5 30.025)"/></g><path d="M880.84 330.06v175.56" stroke="#333" fill="none"/><path d="M881.34 330.07h-1v-.5h1z" fill="#333"/><path d="M880.84 520.38l-4.64-14.26h9.27z" stroke="#333" fill="#333"/><defs><path fill="#333" d="M147 0H94L2-248h55l64 206c17-72 42-137 63-206h54" id="t"/><path fill="#333" d="M24-248c93 1 206-16 204 79-1 75-69 88-152 82V0H24v-248zm52 121c47 0 100 7 100-41 0-47-54-39-100-39v80" id="u"/><path fill="#333" d="M67-125c0 53 21 87 73 88 37 1 54-22 65-47l45 17C233-25 199 4 140 4 58 4 20-42 15-125 8-235 124-281 211-232c18 10 29 29 36 50l-46 12c-8-25-30-41-62-41-52 0-71 34-72 86" id="v"/><g id="a"><use transform="matrix(0.04320987654320988,0,0,0.04320987654320988,0,0)" xlink:href="#t"/><use transform="matrix(0.04320987654320988,0,0,0.04320987654320988,10.370370370370372,0)" xlink:href="#u"/><use transform="matrix(0.04320987654320988,0,0,0.04320987654320988,20.740740740740744,0)" xlink:href="#v"/></g><path fill="#333" d="M30 0v-248h187v28H63v79h144v27H63v87h162V0H30" id="w"/><path fill="#333" d="M30 0v-248h33v221h125V0H30" id="x"/><path fill="#333" d="M160-131c35 5 61 23 61 61C221 17 115-2 30 0v-248c76 3 177-17 177 60 0 33-19 50-47 57zm-97-11c50-1 110 9 110-42 0-47-63-36-110-37v79zm0 115c55-2 124 14 124-45 0-56-70-42-124-44v89" id="y"/><g id="c"><use transform="matrix(0.04320987654320988,0,0,0.04320987654320988,0,0)" xlink:href="#w"/><use transform="matrix(0.04320987654320988,0,0,0.04320987654320988,10.370370370370372,0)" xlink:href="#x"/><use transform="matrix(0.04320987654320988,0,0,0.04320987654320988,19.01234567901235,0)" xlink:href="#y"/></g><path fill="#333" d="M233-177c-1 41-23 64-60 70L243 0h-38l-65-103H63V0H30v-248c88 3 205-21 203 71zM63-129c60-2 137 13 137-47 0-61-80-42-137-45v92" id="z"/><path fill="#333" d="M100-194c62-1 85 37 85 99 1 63-27 99-86 99S16-35 15-95c0-66 28-99 85-99zM99-20c44 1 53-31 53-75 0-43-8-75-51-75s-53 32-53 75 10 74 51 75" id="A"/><path fill="#333" d="M84 4C-5 8 30-112 23-190h32v120c0 31 7 50 39 49 72-2 45-101 50-169h31l1 190h-30c-1-10 1-25-2-33-11 22-28 36-60 37" id="B"/><path fill="#333" d="M59-47c-2 24 18 29 38 22v24C64 9 27 4 27-40v-127H5v-23h24l9-43h21v43h35v23H59v120" id="C"/><path fill="#333" d="M100-194c63 0 86 42 84 106H49c0 40 14 67 53 68 26 1 43-12 49-29l28 8c-11 28-37 45-77 45C44 4 14-33 15-96c1-61 26-98 85-98zm52 81c6-60-76-77-97-28-3 7-6 17-6 28h103" id="D"/><path fill="#333" d="M54-142c48-35 137-8 131 61C196 18 31 33 14-55l32-4c7 23 22 37 52 37 35-1 51-22 54-58 4-55-73-65-99-34H22l8-134h141v27H59" id="E"/><path fill="#333" d="M126-127c33 6 58 20 58 59 0 88-139 92-164 29-3-8-5-16-6-25l32-3c6 27 21 44 54 44 32 0 52-15 52-46 0-38-36-46-79-43v-28c39 1 72-4 72-42 0-27-17-43-46-43-28 0-47 15-49 41l-32-3c6-42 35-63 81-64 48-1 79 21 79 65 0 36-21 52-52 59" id="F"/><g id="d"><use transform="matrix(0.04320987654320988,0,0,0.04320987654320988,0,0)" xlink:href="#z"/><use transform="matrix(0.04320987654320988,0,0,0.04320987654320988,11.19135802469136,0)" xlink:href="#A"/><use transform="matrix(0.04320987654320988,0,0,0.04320987654320988,19.833333333333336,0)" xlink:href="#B"/><use transform="matrix(0.04320987654320988,0,0,0.04320987654320988,28.47530864197531,0)" xlink:href="#C"/><use transform="matrix(0.04320987654320988,0,0,0.04320987654320988,32.7962962962963,0)" xlink:href="#D"/><use transform="matrix(0.04320987654320988,0,0,0.04320987654320988,41.43827160493827,0)" xlink:href="#E"/><use transform="matrix(0.04320987654320988,0,0,0.04320987654320988,50.08024691358024,0)" xlink:href="#F"/></g><path fill="#333" d="M30-248c118-7 216 8 213 122C240-48 200 0 122 0H30v-248zM63-27c89 8 146-16 146-99s-60-101-146-95v194" id="G"/><path fill="#333" d="M190 0L58-211 59 0H30v-248h39L202-35l-2-213h31V0h-41" id="H"/><path fill="#333" d="M185-189c-5-48-123-54-124 2 14 75 158 14 163 119 3 78-121 87-175 55-17-10-28-26-33-46l33-7c5 56 141 63 141-1 0-78-155-14-162-118-5-82 145-84 179-34 5 7 8 16 11 25" id="I"/><g id="e"><use transform="matrix(0.04320987654320988,0,0,0.04320987654320988,0,0)" xlink:href="#G"/><use transform="matrix(0.04320987654320988,0,0,0.04320987654320988,11.19135802469136,0)" xlink:href="#H"/><use transform="matrix(0.04320987654320988,0,0,0.04320987654320988,22.38271604938272,0)" xlink:href="#I"/></g><path fill="#333" d="M140-251c81 0 123 46 123 126C263-46 219 4 140 4 59 4 17-45 17-125s42-126 123-126zm0 227c63 0 89-41 89-101s-29-99-89-99c-61 0-89 39-89 99S79-25 140-24" id="J"/><path fill="#333" d="M114-163C36-179 61-72 57 0H25l-1-190h30c1 12-1 29 2 39 6-27 23-49 58-41v29" id="K"/><path fill="#333" d="M85-194c31 0 48 13 60 33l-1-100h32l1 261h-30c-2-10 0-23-3-31C134-8 116 4 85 4 32 4 16-35 15-94c0-66 23-100 70-100zm9 24c-40 0-46 34-46 75 0 40 6 74 45 74 42 0 51-32 51-76 0-42-9-74-50-73" id="L"/><g id="f"><use transform="matrix(0.04320987654320988,0,0,0.04320987654320988,0,0)" xlink:href="#J"/><use transform="matrix(0.04320987654320988,0,0,0.04320987654320988,12.098765432098766,0)" xlink:href="#K"/><use transform="matrix(0.04320987654320988,0,0,0.04320987654320988,17.24074074074074,0)" xlink:href="#L"/><use transform="matrix(0.04320987654320988,0,0,0.04320987654320988,25.882716049382715,0)" xlink:href="#D"/><use transform="matrix(0.04320987654320988,0,0,0.04320987654320988,34.52469135802469,0)" xlink:href="#K"/></g><path fill="#333" d="M266 0h-40l-56-210L115 0H75L2-248h35L96-30l15-64 43-154h32l59 218 59-218h35" id="M"/><path fill="#333" d="M115-194c53 0 69 39 70 98 0 66-23 100-70 100C84 3 66-7 56-30L54 0H23l1-261h32v101c10-23 28-34 59-34zm-8 174c40 0 45-34 45-75 0-40-5-75-45-74-42 0-51 32-51 76 0 43 10 73 51 73" id="N"/><g id="g"><use transform="matrix(0.04320987654320988,0,0,0.04320987654320988,0,0)" xlink:href="#M"/><use transform="matrix(0.04320987654320988,0,0,0.04320987654320988,14.34567901234568,0)" xlink:href="#D"/><use transform="matrix(0.04320987654320988,0,0,0.04320987654320988,22.987654320987655,0)" xlink:href="#N"/></g><path fill="#333" d="M205 0l-28-72H64L36 0H1l101-248h38L239 0h-34zm-38-99l-47-123c-12 45-31 82-46 123h93" id="O"/><path fill="#333" d="M30-248c87 1 191-15 191 75 0 78-77 80-158 76V0H30v-248zm33 125c57 0 124 11 124-50 0-59-68-47-124-48v98" id="P"/><path fill="#333" d="M33 0v-248h34V0H33" id="Q"/><g id="h"><use transform="matrix(0.04320987654320988,0,0,0.04320987654320988,0,0)" xlink:href="#O"/><use transform="matrix(0.04320987654320988,0,0,0.04320987654320988,10.370370370370372,0)" xlink:href="#P"/><use transform="matrix(0.04320987654320988,0,0,0.04320987654320988,20.740740740740744,0)" xlink:href="#Q"/></g><path fill="#333" d="M275 0h-61l-44-196L126 0H64L0-248h53L97-49l45-199h58l43 199 44-199h52" id="R"/><path fill="#333" d="M185-48c-13 30-37 53-82 52C43 2 14-33 14-96s30-98 90-98c62 0 83 45 84 108H66c0 31 8 55 39 56 18 0 30-7 34-22zm-45-69c5-46-57-63-70-21-2 6-4 13-4 21h74" id="S"/><path fill="#333" d="M135-194c52 0 70 43 70 98 0 56-19 99-73 100-30 1-46-15-58-35L72 0H24l1-261h50v104c11-23 29-37 60-37zM114-30c31 0 40-27 40-66 0-37-7-63-39-63s-41 28-41 65c0 36 8 64 40 64" id="T"/><g id="i"><use transform="matrix(0.03703703703703704,0,0,0.03703703703703704,0,0)" xlink:href="#R"/><use transform="matrix(0.03703703703703704,0,0,0.03703703703703704,12.296296296296298,0)" xlink:href="#S"/><use transform="matrix(0.03703703703703704,0,0,0.03703703703703704,19.703703703703706,0)" xlink:href="#T"/></g><path fill="#333" d="M24 0v-248h195v40H76v63h132v40H76v65h150V0H24" id="U"/><path fill="#333" d="M135-194c87-1 58 113 63 194h-50c-7-57 23-157-34-157-59 0-34 97-39 157H25l-1-190h47c2 12-1 28 3 38 12-26 28-41 61-42" id="V"/><path fill="#333" d="M88-194c31-1 46 15 58 34l-1-101h50l1 261h-48c-2-10 0-23-3-31C134-8 116 4 84 4 32 4 16-41 15-95c0-56 19-97 73-99zm17 164c33 0 40-30 41-66 1-37-9-64-41-64s-38 30-39 65c0 43 13 65 39 65" id="W"/><path fill="#333" d="M135-194c53 0 70 44 70 98 0 56-19 98-73 100-31 1-45-17-59-34 3 33 2 69 2 105H25l-1-265h48c2 10 0 23 3 31 11-24 29-35 60-35zM114-30c33 0 39-31 40-66 0-38-9-64-40-64-56 0-55 130 0 130" id="X"/><path fill="#333" d="M110-194c64 0 96 36 96 99 0 64-35 99-97 99-61 0-95-36-95-99 0-62 34-99 96-99zm-1 164c35 0 45-28 45-65 0-40-10-65-43-65-34 0-45 26-45 65 0 36 10 65 43 65" id="Y"/><path fill="#333" d="M25-224v-37h50v37H25zM25 0v-190h50V0H25" id="Z"/><path fill="#333" d="M115-3C79 11 28 4 28-45v-112H4v-33h27l15-45h31v45h36v33H77v99c-1 23 16 31 38 25v30" id="aa"/><g id="j"><use transform="matrix(0.03703703703703704,0,0,0.03703703703703704,0,0)" xlink:href="#U"/><use transform="matrix(0.03703703703703704,0,0,0.03703703703703704,8.88888888888889,0)" xlink:href="#V"/><use transform="matrix(0.03703703703703704,0,0,0.03703703703703704,17,0)" xlink:href="#W"/><use transform="matrix(0.03703703703703704,0,0,0.03703703703703704,25.111111111111114,0)" xlink:href="#X"/><use transform="matrix(0.03703703703703704,0,0,0.03703703703703704,33.22222222222223,0)" xlink:href="#Y"/><use transform="matrix(0.03703703703703704,0,0,0.03703703703703704,41.333333333333336,0)" xlink:href="#Z"/><use transform="matrix(0.03703703703703704,0,0,0.03703703703703704,45.037037037037045,0)" xlink:href="#V"/><use transform="matrix(0.03703703703703704,0,0,0.03703703703703704,53.14814814814817,0)" xlink:href="#aa"/></g><path fill="#333" d="M240-174c0 40-23 61-54 70L253 0h-59l-57-94H76V0H24v-248c93 4 217-23 216 74zM76-134c48-2 112 12 112-38 0-48-66-32-112-35v73" id="ab"/><path fill="#333" d="M24-248c120-7 223 5 221 122C244-46 201 0 124 0H24v-248zM76-40c74 7 117-18 117-86 0-67-45-88-117-82v168" id="ac"/><path fill="#333" d="M169-182c-1-43-94-46-97-3 18 66 151 10 154 114 3 95-165 93-204 36-6-8-10-19-12-30l50-8c3 46 112 56 116 5-17-69-150-10-154-114-4-87 153-88 188-35 5 8 8 18 10 28" id="ad"/><g id="k"><use transform="matrix(0.03703703703703704,0,0,0.03703703703703704,0,0)" xlink:href="#ab"/><use transform="matrix(0.03703703703703704,0,0,0.03703703703703704,9.592592592592593,0)" xlink:href="#ac"/><use transform="matrix(0.03703703703703704,0,0,0.03703703703703704,19.185185185185187,0)" xlink:href="#ad"/></g><path fill="#333" d="M140-251c81 0 123 46 123 126C263-53 228-8 163 1c7 30 30 48 69 40v23c-55 16-95-15-103-61C56-3 17-48 17-125c0-80 42-126 123-126zm0 227c63 0 89-41 89-101s-29-99-89-99c-61 0-89 39-89 99S79-25 140-24" id="ae"/><g id="m"><use transform="matrix(0.05,0,0,0.05,0,0)" xlink:href="#I"/><use transform="matrix(0.05,0,0,0.05,12,0)" xlink:href="#ae"/><use transform="matrix(0.05,0,0,0.05,26,0)" xlink:href="#I"/></g><g id="n"><use transform="matrix(0.05,0,0,0.05,0,0)" xlink:href="#J"/><use transform="matrix(0.05,0,0,0.05,14,0)" xlink:href="#K"/><use transform="matrix(0.05,0,0,0.05,19.95,0)" xlink:href="#L"/><use transform="matrix(0.05,0,0,0.05,29.950000000000003,0)" xlink:href="#D"/><use transform="matrix(0.05,0,0,0.05,39.95,0)" xlink:href="#K"/></g><path fill="#333" d="M117-194c89-4 53 116 60 194h-32v-121c0-31-8-49-39-48C34-167 62-67 57 0H25l-1-190h30c1 10-1 24 2 32 11-22 29-35 61-36" id="af"/><path fill="#333" d="M115-194c55 1 70 41 70 98S169 2 115 4C84 4 66-9 55-30l1 105H24l-1-265h31l2 30c10-21 28-34 59-34zm-8 174c40 0 45-34 45-75s-6-73-45-74c-42 0-51 32-51 76 0 43 10 73 51 73" id="ag"/><path fill="#333" d="M24-231v-30h32v30H24zM24 0v-190h32V0H24" id="ah"/><g id="o"><use transform="matrix(0.05,0,0,0.05,0,0)" xlink:href="#w"/><use transform="matrix(0.05,0,0,0.05,12,0)" xlink:href="#af"/><use transform="matrix(0.05,0,0,0.05,22,0)" xlink:href="#L"/><use transform="matrix(0.05,0,0,0.05,32,0)" xlink:href="#ag"/><use transform="matrix(0.05,0,0,0.05,42,0)" xlink:href="#A"/><use transform="matrix(0.05,0,0,0.05,52,0)" xlink:href="#ah"/><use transform="matrix(0.05,0,0,0.05,55.95,0)" xlink:href="#af"/><use transform="matrix(0.05,0,0,0.05,65.95,0)" xlink:href="#C"/></g><path fill="#333" d="M141-36C126-15 110 5 73 4 37 3 15-17 15-53c-1-64 63-63 125-63 3-35-9-54-41-54-24 1-41 7-42 31l-33-3c5-37 33-52 76-52 45 0 72 20 72 64v82c-1 20 7 32 28 27v20c-31 9-61-2-59-35zM48-53c0 20 12 33 32 33 41-3 63-29 60-74-43 2-92-5-92 41" id="ai"/><path fill="#333" d="M179-190L93 31C79 59 56 82 12 73V49c39 6 53-20 64-50L1-190h34L92-34l54-156h33" id="aj"/><path fill="#333" d="M210-169c-67 3-38 105-44 169h-31v-121c0-29-5-50-35-48C34-165 62-65 56 0H25l-1-190h30c1 10-1 24 2 32 10-44 99-50 107 0 11-21 27-35 58-36 85-2 47 119 55 194h-31v-121c0-29-5-49-35-48" id="ak"/><g id="p"><use transform="matrix(0.05,0,0,0.05,0,0)" xlink:href="#P"/><use transform="matrix(0.05,0,0,0.05,12,0)" xlink:href="#ai"/><use transform="matrix(0.05,0,0,0.05,22,0)" xlink:href="#aj"/><use transform="matrix(0.05,0,0,0.05,31,0)" xlink:href="#ak"/><use transform="matrix(0.05,0,0,0.05,45.95,0)" xlink:href="#D"/><use transform="matrix(0.05,0,0,0.05,55.95,0)" xlink:href="#af"/><use transform="matrix(0.05,0,0,0.05,65.95,0)" xlink:href="#C"/></g><g id="q"><use transform="matrix(0.05,0,0,0.05,0,0)" xlink:href="#y"/><use transform="matrix(0.05,0,0,0.05,12,0)" xlink:href="#A"/><use transform="matrix(0.05,0,0,0.05,22,0)" xlink:href="#B"/><use transform="matrix(0.05,0,0,0.05,32,0)" xlink:href="#af"/><use transform="matrix(0.05,0,0,0.05,42,0)" xlink:href="#L"/><use transform="matrix(0.05,0,0,0.05,52,0)" xlink:href="#D"/><use transform="matrix(0.05,0,0,0.05,62,0)" xlink:href="#L"/></g><path fill="#333" d="M212-179c-10-28-35-45-73-45-59 0-87 40-87 99 0 60 29 101 89 101 43 0 62-24 78-52l27 14C228-24 195 4 139 4 59 4 22-46 18-125c-6-104 99-153 187-111 19 9 31 26 39 46" id="al"/><path fill="#333" d="M141 0L90-78 38 0H4l68-98-65-92h35l48 74 47-74h35l-64 92 68 98h-35" id="am"/><g id="r"><use transform="matrix(0.05,0,0,0.05,0,0)" xlink:href="#al"/><use transform="matrix(0.05,0,0,0.05,12.950000000000001,0)" xlink:href="#A"/><use transform="matrix(0.05,0,0,0.05,22.950000000000003,0)" xlink:href="#af"/><use transform="matrix(0.05,0,0,0.05,32.95,0)" xlink:href="#C"/><use transform="matrix(0.05,0,0,0.05,37.95,0)" xlink:href="#D"/><use transform="matrix(0.05,0,0,0.05,47.95,0)" xlink:href="#am"/><use transform="matrix(0.05,0,0,0.05,56.95,0)" xlink:href="#C"/></g><g id="s"><use transform="matrix(0.05,0,0,0.05,0,0)" xlink:href="#P"/><use transform="matrix(0.05,0,0,0.05,12,0)" xlink:href="#ai"/><use transform="matrix(0.05,0,0,0.05,22,0)" xlink:href="#aj"/><use transform="matrix(0.05,0,0,0.05,31,0)" xlink:href="#ak"/><use transform="matrix(0.05,0,0,0.05,45.95,0)" xlink:href="#D"/><use transform="matrix(0.05,0,0,0.05,55.95,0)" xlink:href="#af"/><use transform="matrix(0.05,0,0,0.05,65.95,0)" xlink:href="#C"/></g></defs></g></svg>